<svg class="" xmlns="http://www.w3.org/2000/svg" viewBox="0 0 424.2 77.1">
    <path d="M54.5,77.1h-9.1C15.13,77.1,0,68.3,0,50.7v-1H31.2c.53,7,6.73,10.5,18.6,10.5h.9c3.8,0,6.97-.18,9.5-.55,2.53-.37,4.4-.9,5.6-1.6,1.2-.7,2.02-1.43,2.45-2.2,.43-.77,.65-1.65,.65-2.65v-.1c0-1.4-.35-2.52-1.05-3.35-.7-.83-2.37-1.57-5-2.2-2.63-.63-6.45-1.02-11.45-1.15l-13.8-.4C13.27,45.33,1.1,37.87,1.1,23.6v-.9c0-2.6,.37-4.95,1.1-7.05,.73-2.1,2.07-4.15,4-6.15,1.93-2,4.47-3.67,7.6-5,3.13-1.33,7.25-2.42,12.35-3.25,5.1-.83,11.02-1.25,17.75-1.25h8.9c30.13,0,45.2,7.83,45.2,23.5v.8h-30.9c-.6-5.27-6.6-7.9-18-7.9h-1c-4.67,0-8.27,.28-10.8,.85-2.53,.57-4.1,1.2-4.7,1.9-.6,.7-.9,1.62-.9,2.75v.1c0,1.13,.35,2.07,1.05,2.8,.7,.73,2.28,1.38,4.75,1.95,2.47,.57,5.93,.88,10.4,.95l13.4,.3c14.07,.4,24.13,2.35,30.2,5.85,6.07,3.5,9.1,9.02,9.1,16.55v1.4c0,2.73-.33,5.22-1,7.45-.67,2.23-2,4.5-4,6.8-2,2.3-4.65,4.23-7.95,5.8-3.3,1.57-7.77,2.83-13.4,3.8-5.63,.97-12.22,1.45-19.75,1.45Z"></path>
    <path d="M117,1.3h82.3V19.5h-54.3v9.3h53.2v18.1h-53.2v10.2h55.1v18.6H117V1.3Z"></path>
    <path d="M218.3,1.3h31.8l43.2,42.3V1.3h28.2V75.7h-28.4l-46.6-45.1v45.1h-28.2V1.3Z"></path>
    <path d="M341.1,1.3h82.3V19.5h-54.3v9.3h53.2v18.1h-53.2v10.2h55.1v18.6h-83.1V1.3Z"></path>
</svg>