<?xml version="1.0" encoding="utf-8"?>
<!-- Generator: Adobe Illustrator 28.1.0, SVG Export Plug-In . SVG Version: 6.00 Build 0)  -->
<svg version="1.1" id="Layer_1" xmlns="http://www.w3.org/2000/svg" xmlns:xlink="http://www.w3.org/1999/xlink" x="0px" y="0px"
	 viewBox="0 0 152 25" style="enable-background:new 0 0 152 25;" xml:space="preserve">
<style type="text/css">
	.st0{fill:#667C95;}
	.st1{fill:#00254E;}
	.st2{fill:#A0AEBD;}
	.st3{fill:#B3D7E8;}
	.st4{fill:#D9DBDD;}
</style>
<g>
	<path class="st0" d="M36.5,12.5c0,3-2.2,5.1-5.6,5.1c-1.1,0-2.3-0.2-2.8-0.4V7.5h2.9C34.3,7.5,36.5,9.6,36.5,12.5z M35.4,12.5
		c0-2.2-1.6-4-4.4-4h-1.8v7.9c0.5,0.1,1.2,0.2,1.9,0.2C33.8,16.6,35.4,14.8,35.4,12.5z"/>
	<path class="st0" d="M39.4,7.5h1.1v9.9h-1.1V7.5z"/>
	<path class="st0" d="M49.6,14.7h-4.3l-1.1,2.7H43l4.4-10h0.2l4.4,10h-1.2L49.6,14.7z M47.5,9.5l-1.8,4.3h3.5L47.5,9.5z"/>
	<path class="st0" d="M64.7,17.4L63.5,10l-3.6,6.5h-0.3L56,10l-1.2,7.4h-1.1l1.7-10h0.2l4.1,7.4l4.1-7.4h0.2l1.7,10H64.7z"/>
	<path class="st0" d="M67.9,12.5c0-2.9,2.2-5.1,5.1-5.1c2.9,0,5.1,2.2,5.1,5.1c0,2.9-2.2,5.1-5.1,5.1C70.1,17.6,67.9,15.4,67.9,12.5
		z M77.1,12.5c0-2.3-1.8-4.1-4-4.1c-2.3,0-4,1.8-4,4.1c0,2.3,1.7,4.1,4,4.1C75.3,16.6,77.1,14.8,77.1,12.5z"/>
	<path class="st0" d="M89.4,7.5v9.9h-0.2L82,9.8v7.6H81V7.5h0.2l7.1,7.6V7.5H89.4z"/>
	<path class="st0" d="M101.3,12.5c0,3-2.2,5.1-5.6,5.1c-1.1,0-2.3-0.2-2.8-0.4V7.5h2.9C99.1,7.5,101.3,9.6,101.3,12.5z M100.2,12.5
		c0-2.2-1.6-4-4.4-4h-1.8v7.9c0.5,0.1,1.2,0.2,1.9,0.2C98.6,16.6,100.2,14.8,100.2,12.5z"/>
	<path class="st1" d="M110.6,17.4l-2.3-3.4c-0.4,0.1-0.9,0.1-1.3,0.1c-0.8,0-1.4-0.1-1.8-0.2v3.5h-1.1V7.5h3.6
		c2.6,0,3.9,1.2,3.9,3.1c0,1.5-0.8,2.6-2.3,3.1l2.4,3.7H110.6z M107,13.1c2.4,0,3.5-0.9,3.5-2.5c0-1.3-0.7-2.1-2.9-2.1h-2.4V13
		C105.7,13.1,106.3,13.1,107,13.1z"/>
	<path class="st1" d="M120.9,16.4v1h-6.3V7.5h6.2v1h-5.1v3.1h4.8v1h-4.8v3.8H120.9z"/>
	<path class="st1" d="M132.2,7.5v9.9H132l-7.1-7.7v7.6h-1.1V7.5h0.2l7.1,7.6V7.5H132.2z"/>
	<path class="st1" d="M135.3,17v-1c0.5,0.3,1.3,0.6,2.2,0.6c1.6,0,2.4-0.8,2.4-1.8c0-0.8-0.5-1.4-1.4-1.9l-1.2-0.6
		c-1.1-0.6-1.8-1.3-1.8-2.4c0-1.5,1.3-2.5,3.4-2.5c0.7,0,1.4,0.2,1.8,0.4v1c-0.4-0.2-1.1-0.4-1.8-0.4c-1.4,0-2.3,0.7-2.3,1.6
		c0,0.7,0.5,1.1,1.3,1.5l1.2,0.6c1.3,0.6,1.9,1.5,1.9,2.7c0,1.5-1.1,2.8-3.5,2.8C136.6,17.6,135.7,17.3,135.3,17z"/>
	<path class="st1" d="M143.6,13.2V7.5h1.1v5.7c0,2,1.2,3.3,3.1,3.3c2,0,3.1-1.3,3.1-3.3V7.5h1.1v5.7c0,2.7-1.7,4.4-4.2,4.4
		C145.3,17.6,143.6,16,143.6,13.2z"/>
</g>
<g>
	<path class="st0" d="M7.2,12.5C7.2,12.5,7.2,12.5,7.2,12.5C7.2,12.5,7.1,12.5,7.2,12.5c-1.6-0.8-3.2-1.5-4.8-2.3c0,0-0.1,0-0.1-0.1
		C1.6,9,0.8,7.9,0,6.8c0,0,0,0,0,0c0.2,0,0.5,0,0.8,0l0.3,0l0.9,0c0.2,0,0.3,0,0.5,0c0.1,0,0.1,0,0.2,0c0.1,0,0.2,0,0.2,0
		c0.1,0,0.1,0,0.2,0c0,0,0.1,0,0.1,0c0.6,0,1,0,1,0l0,0C5.1,8.6,6.2,10.5,7.2,12.5z"/>
	<path class="st1" d="M7.8,4.2C7.8,4.2,7.8,4.2,7.8,4.2C7.6,4.6,7.5,5.1,7.4,5.6C7.3,6.1,7.1,6.5,7,7c0,0,0,0,0,0
		C6.5,6.9,6.1,6.9,5.7,6.8c-0.4,0-0.8-0.1-1.3-0.1c-0.1,0-0.2,0-0.3,0l0,0c0,0,0-0.3-0.1-0.6C4,6,4,6,4,5.9c0,0,0,0,0-0.1
		c0-0.1,0-0.2,0-0.2c0-0.1,0-0.2,0-0.2c0-0.1,0-0.1,0-0.2c-0.1-0.9-0.3-2-0.4-2.9c0-0.1,0-0.2,0-0.3c0-0.1,0-0.1,0-0.2
		C4.9,2.6,6.3,3.4,7.8,4.2C7.8,4.2,7.8,4.2,7.8,4.2L7.8,4.2z"/>
	<path class="st0" d="M17.2,4.2L17.2,4.2c-0.9,0.6-1.9,1.2-2.8,1.8c0,0,0,0,0,0c-0.6-0.9-1.3-1.8-1.9-2.7c-0.6,0.9-1.3,1.8-1.9,2.7
		c0,0,0,0,0,0C9.7,5.4,8.7,4.8,7.8,4.2l0,0c0.5-1.4,1-2.8,1.6-4.2l3.2,3.3L15.7,0C16.2,1.4,16.7,2.8,17.2,4.2
		C17.2,4.2,17.2,4.2,17.2,4.2C17.2,4.2,17.2,4.2,17.2,4.2"/>
	<path class="st0" d="M7.2,12.5C7.2,12.5,7.2,12.5,7.2,12.5c-0.1,0.1-0.1,0.2-0.2,0.3c-1,1.8-1.9,3.6-2.9,5.4c0,0,0,0-0.1,0.1
		c0,0,0,0,0,0c0,0,0,0,0,0h0c-1.3,0-2.6-0.1-4-0.1c0,0,0,0,0,0c0,0,0,0,0,0c0.8-1.1,1.5-2.2,2.3-3.3c0-0.1,0.1-0.1,0.1-0.1
		C4,14,5.6,13.3,7.2,12.5C7.1,12.5,7.2,12.5,7.2,12.5C7.2,12.5,7.2,12.5,7.2,12.5z"/>
	<path class="st0" d="M25,18.3c-0.2,0-0.3,0-0.5,0l-3.2,0.1l-0.4,0c-0.2-0.3-0.4-0.7-0.6-1c-0.8-1.6-1.7-3.1-2.5-4.7c0,0,0,0,0,0
		c0,0,0,0,0,0l0,0c0,0,0.1,0,0.1,0l4.7,2.2c0,0,0.1,0,0.1,0.1C23.4,16,24.2,17.1,25,18.3C25,18.2,25,18.2,25,18.3z"/>
	<path class="st0" d="M25,6.8c-0.1,0.1-0.2,0.3-0.3,0.4c-0.7,1-1.4,2-2.1,3c0,0-0.1,0.1-0.1,0.1c-1.6,0.7-3.1,1.5-4.7,2.2
		c0,0,0,0-0.1,0c0,0,0,0,0-0.1l0,0c0,0,0,0,0,0l3.1-5.7c0,0,0,0,0,0h0c0.5,0,1,0,1.5,0L25,6.8C25,6.8,25,6.8,25,6.8z"/>
	<path class="st0" d="M13.6,15.2C13.6,15.2,13.6,15.2,13.6,15.2c-0.4,0.6-0.7,1.3-1.1,1.9c-0.4-0.6-0.7-1.3-1.1-1.9l0,0c0,0,0,0,0,0
		c0.3-0.4,0.7-0.7,1-1.1c0,0,0,0,0-0.1c0-0.5,0-1,0-1.5c0-0.5,0-1,0-1.5c0,0,0,0,0-0.1c0,0,0,0,0,0c0,0,0,0,0,0c0,0,0,0,0,0
		c-0.3-0.4-0.6-0.7-1-1.1c0,0,0,0,0,0c0,0,0,0,0,0c0.4-0.7,0.7-1.3,1.1-1.9c0.4,0.6,0.7,1.3,1.1,1.9c0,0,0,0,0,0c0,0,0,0,0,0
		c0,0,0,0,0,0c-0.1,0.1-0.1,0.1-0.2,0.2c-0.3,0.3-0.5,0.6-0.8,0.9c0,0,0,0.1-0.1,0.1c0,0,0,0.1,0,0.1c0,0.9,0,1.9,0,2.8
		c0,0,0,0.1,0,0.1c0,0,0,0.1,0,0.1c0.2,0.2,0.4,0.4,0.6,0.7C13.3,14.9,13.4,15.1,13.6,15.2z"/>
	<path class="st2" d="M12.4,12.5c-0.2,0.1-0.4,0.2-0.6,0.3c-0.4,0.2-0.7,0.4-1.1,0.6c0,0,0,0,0,0c0,0,0,0-0.1,0c-1-0.3-2-0.6-3-0.9
		c0,0,0,0,0,0c0.1,0,0.3-0.1,0.4-0.1c0.9-0.3,1.7-0.6,2.6-0.8c0,0,0.1,0,0.1,0l0.4,0.2c0,0,0.1,0,0.1,0c0,0,0.1,0,0.1,0.1l0,0
		c0,0,0,0,0.1,0c0,0,0.1,0.1,0.1,0.1L12.4,12.5z"/>
	<path class="st2" d="M17.3,12.5c-0.1,0-0.2,0.1-0.4,0.1c-0.9,0.3-1.7,0.5-2.6,0.8c0,0-0.1,0-0.1,0c0,0,0,0,0,0
		c-0.6-0.3-1.1-0.6-1.7-1c0,0,0,0,0,0l1.7-0.9c0,0,0,0,0,0c0,0,0,0,0,0c0,0,0.1,0,0.1,0C15.3,11.8,16.3,12.2,17.3,12.5
		C17.3,12.5,17.3,12.5,17.3,12.5C17.3,12.5,17.3,12.5,17.3,12.5z"/>
	<path class="st3" d="M9,16.5C9,16.5,9,16.5,9,16.5c-0.7,0.5-1.3,1-1.9,1.5C7.1,18,7,18,7,18c0,0,0,0,0,0c0,0,0,0,0,0c0,0,0,0,0,0
		c0,0,0,0,0,0c0,0,0,0,0,0c0,0,0,0,0,0c0,0-0.1,0-0.1,0c0,0,0,0,0,0c0,0,0,0,0,0c0,0,0,0,0,0l-0.1,0c-0.2,0-0.4,0-0.6,0.1
		c-0.1,0-0.3,0-0.4,0c0,0,0,0-0.1,0c-0.4,0-0.7,0.1-1.1,0.1c-0.1,0-0.1,0-0.2,0c-0.1,0-0.1,0-0.2,0h0c0,0,0,0,0,0c0,0,0,0,0-0.1
		c1-1.9,2-3.8,3-5.7c0,0,0,0,0,0c0,0,0,0,0,0c0,0,0,0,0.1,0c0,0,0,0,0.1,0c0,0,0,0,0.1,0c0,0,0,0,0,0.1c0.5,1.3,1.1,2.5,1.6,3.8
		C9,16.4,9,16.4,9,16.5L9,16.5L9,16.5L9,16.5z"/>
	<path class="st1" d="M16,16.5L16,16.5c-0.8-0.4-1.6-0.8-2.3-1.2c0,0,0,0,0,0c0,0,0,0,0,0c0,0,0,0-0.1-0.1c-0.3-0.4-0.6-0.7-0.9-1.1
		c-0.1-0.1-0.1-0.1-0.2,0c-0.3,0.4-0.6,0.7-1,1.1c0,0,0,0-0.1,0c0,0,0,0-0.1,0c-0.8,0.4-1.5,0.8-2.3,1.2c0,0,0,0-0.1,0l0,0
		c0,0,0-0.1,0-0.1c0.5-0.9,1.1-1.9,1.6-2.8c0,0,0-0.1,0.1-0.1c0,0,0,0,0,0c0.5-0.3,1.1-0.6,1.6-0.9c0,0,0,0,0.1,0c0,0-0.1,0-0.1,0
		c-0.3-0.1-0.5-0.3-0.8-0.4c-0.1-0.1-0.2-0.1-0.3-0.2c0,0-0.1,0-0.1,0c-0.1-0.1-0.3-0.2-0.4-0.2c0,0-0.1,0-0.1-0.1
		c-0.5-1-1.1-1.9-1.6-2.9c0,0,0,0,0,0c0.1,0.1,0.2,0.1,0.3,0.2c0.7,0.3,1.4,0.7,2,1.1c0,0,0,0,0.1,0c0,0,0,0,0.1,0.1
		c0.3,0.4,0.6,0.7,0.9,1.1c0,0,0,0,0,0c0.1,0,0.1,0,0.2,0l0.8-0.9c0.1-0.1,0.1-0.1,0.2-0.2c0,0,0,0,0,0c0,0,0,0,0,0c0,0,0,0,0,0
		c0.8-0.4,1.5-0.8,2.3-1.2c0,0,0,0,0.1,0c0,0,0,0,0,0.1c-0.5,1-1,1.9-1.6,2.9c0,0,0,0,0,0c0,0,0,0,0,0c0,0,0,0,0,0c0,0,0,0,0,0
		c0,0,0,0,0,0c-0.5,0.3-1.1,0.6-1.6,0.9c0,0,0,0-0.1,0c0,0,0.1,0,0.1,0c0.5,0.3,1.1,0.6,1.6,0.9c0,0,0,0,0,0c0,0,0,0,0,0
		c0,0,0,0,0,0c0,0,0,0,0,0C14.9,14.5,15.4,15.5,16,16.5C15.9,16.4,15.9,16.5,16,16.5z"/>
	<path class="st1" d="M9,8.5C9,8.5,9,8.5,9,8.5L9,8.5C9,8.5,9,8.5,9,8.5z"/>
	<path class="st3" d="M9,8.5C9,8.6,9,8.6,9,8.5c-0.6,1.3-1.1,2.6-1.6,3.9c0,0,0,0.1-0.1,0.1c0,0-0.1,0-0.1,0c0,0,0,0,0,0
		c0,0,0,0,0,0c0,0,0,0,0,0c0,0,0,0,0,0c-1-1.9-2-3.8-3-5.7c0,0,0,0,0-0.1c0,0,0,0,0,0c0.1,0,0.2,0,0.3,0c0.4,0,0.8,0.1,1.3,0.1
		C6.1,6.9,6.5,6.9,7,7c0,0,0,0,0,0c0,0,0,0,0,0C7.7,7.5,8.3,8,9,8.5C9,8.5,9,8.5,9,8.5z"/>
	<path class="st3" d="M20.9,6.7C20.9,6.7,20.9,6.7,20.9,6.7c-1.1,2-2.1,3.9-3.1,5.7c0,0,0,0,0,0v0l0,0c0,0,0,0-0.1,0c0,0,0,0,0,0
		c0,0-0.1,0-0.1,0c0,0,0,0,0-0.1c-0.5-1.3-1.1-2.6-1.6-3.9c0,0,0,0,0,0c0,0,0,0,0.1-0.1c0.6-0.5,1.2-0.9,1.9-1.4c0,0,0.1,0,0.1-0.1
		c0,0,0,0,0.1,0l0,0L19,6.9l0.2,0c0.4,0,0.8-0.1,1.2-0.1C20.5,6.7,20.7,6.7,20.9,6.7L20.9,6.7L20.9,6.7L20.9,6.7z"/>
	<path class="st3" d="M20.9,18.3L20.9,18.3c-0.1,0-0.2,0-0.3,0l-0.2,0l-0.1,0c-0.1,0-0.1,0-0.2,0c-0.1,0-0.2,0-0.2,0
		c-0.3,0-0.6-0.1-0.9-0.1L18,18c0,0,0,0,0,0c0,0,0,0,0,0c-0.7-0.5-1.3-1-2-1.5c0,0,0,0,0,0c0,0,0,0,0,0c0,0,0,0,0-0.1
		c0.5-1.3,1.1-2.6,1.6-3.8c0,0,0-0.1,0.1-0.1c0,0,0.1,0,0.1,0c0,0,0,0,0,0l0,0l0,0c0,0,0,0,0,0c0,0,0,0,0,0
		C18.8,14.5,19.9,16.4,20.9,18.3C20.9,18.3,20.9,18.3,20.9,18.3z"/>
	<path class="st2" d="M14.4,6c-0.6,0.6-1.3,1.2-1.9,1.8c-0.6-0.6-1.3-1.2-1.9-1.8c0.6-0.9,1.3-1.8,1.9-2.7C13.1,4.2,13.8,5.1,14.4,6
		z"/>
	<path class="st2" d="M14.4,19c-0.6,0.9-1.3,1.8-1.9,2.7c-0.6-0.9-1.3-1.8-1.9-2.7c0.6-0.6,1.3-1.2,1.9-1.8
		C13.1,17.8,13.8,18.4,14.4,19z"/>
	<path class="st3" d="M10.6,6C10.1,6.9,9.5,7.7,9,8.5l0,0C8.3,8,7.7,7.5,7,7c0,0,0,0,0,0c0.1-0.5,0.2-0.9,0.4-1.4
		c0.1-0.5,0.2-0.9,0.4-1.4c0,0,0,0,0,0c0,0,0,0,0,0l0,0l0,0v0l0,0C8.7,4.8,9.6,5.4,10.6,6C10.6,6,10.6,6,10.6,6z"/>
	<path class="st3" d="M18,7L18,7c-0.7,0.5-1.3,1-2,1.5c0,0,0,0,0,0c-0.5-0.8-1.1-1.7-1.6-2.5c0,0,0,0,0,0c0.9-0.6,1.9-1.2,2.8-1.9
		c0,0,0,0,0,0c0,0,0,0,0,0v0v0v0c0.1,0.2,0.1,0.4,0.2,0.7C17.6,5.6,17.8,6.3,18,7z"/>
	<path class="st3" d="M10.6,19L10.6,19C10.6,19,10.6,19,10.6,19C9.8,19.5,9,20,8.1,20.6l-0.4,0.3c0,0,0,0,0,0c0,0,0,0,0,0
		c0,0,0,0,0-0.1c-0.2-0.6-0.3-1.2-0.5-1.8c-0.1-0.3-0.2-0.7-0.3-1c0.7-0.5,1.3-1,2-1.5l0,0l0.8,1.2C10.1,18.1,10.3,18.6,10.6,19
		L10.6,19z"/>
	<path class="st3" d="M18,18C18,18,18,18,18,18c-0.2,0.7-0.3,1.3-0.5,1.9c0,0,0,0.1,0,0.1c0,0.1-0.1,0.2-0.1,0.3
		c0,0.2-0.1,0.3-0.1,0.5c0,0,0,0,0,0c0,0,0,0,0,0c-0.9-0.6-1.9-1.2-2.8-1.9l0,0l1.6-2.5c0,0,0,0,0,0C16.6,17,17.3,17.5,18,18z"/>
	<path class="st1" d="M17.2,4.2l4.3-2.4l-0.7,4.9L18,7L17.2,4.2z"/>
	<path class="st0" d="M10.6,19l-2.8,1.9L9.3,25l3.2-3.3L10.6,19z"/>
	<path class="st0" d="M14.4,19l2.8,1.9L15.7,25l-3.2-3.3L14.4,19z"/>
	<path class="st4" d="M7.2,12.5L7.2,12.5l0.5,0l0,0L7.2,12.5z"/>
	<path class="st4" d="M17.3,12.5L17.3,12.5l0.5,0l0,0L17.3,12.5z"/>
	<path class="st1" d="M17.2,20.8c0-0.2,0.1-0.3,0.1-0.5c0,0,0-0.1,0-0.1c0-0.1,0-0.1,0-0.2c0,0,0,0,0,0c0,0,0-0.1,0-0.1
		c0-0.2,0.1-0.3,0.1-0.5c0.1-0.5,0.2-0.9,0.4-1.4c0,0,0,0,0,0l1.1,0.1c0.3,0,0.6,0.1,0.9,0.1c0.1,0,0.2,0,0.2,0l0.2,0l0.3,0
		c0,0,0.1,0,0.1,0c0,0.3,0.1,0.7,0.1,1c0.1,0.8,0.2,1.6,0.3,2.5c0.1,0.5,0.1,0.9,0.2,1.4c0,0,0,0,0,0C20.1,22.4,18.7,21.6,17.2,20.8
		C17.2,20.8,17.2,20.8,17.2,20.8"/>
	<path class="st1" d="M7.8,20.8c-1.4,0.8-2.9,1.6-4.3,2.4c0.2-1.6,0.4-3.3,0.6-4.9L7,18L7.8,20.8z"/>
</g>
</svg>
